name C:\Users\u0101727\Documents\MyRepositories\upper-imu-dc\Results\main_tracking\Case_44\kinematics.mot
datacolumns 10
datarows 42
range 5.00000000 5.41000000
endheader 
time	clav_prot	clav_elev	scapula_abduction	scapula_elevation	scapula_upward_rot	scapula_winging	plane_elv	shoulder_elv	axial_rot	
          5.00000000	        -23.72317383	          2.22519363	         -0.26941622	         -4.20153358	         36.37911349	         -2.11045429	         68.90575417	         46.36280729	        -23.62984259	
          5.01000000	        -23.53357024	          2.02330219	         -0.29504869	         -4.25208285	         35.83909293	         -1.94449514	         68.70584372	         45.94716771	        -23.42389726	
          5.02000000	        -23.34053150	          1.82201589	         -0.30536318	         -4.30235227	         35.30939756	         -1.78025052	         68.49266295	         45.53493003	        -23.21443676	
          5.03000000	        -23.14538914	          1.62143268	         -0.30269537	         -4.35247102	         34.79017412	         -1.61795975	         68.26629015	         45.12600716	        -23.00148972	
          5.04000000	        -22.95336146	          1.42194627	         -0.29622074	         -4.40259545	         34.28168049	         -1.45787871	         68.02688793	         44.72023899	        -22.78504343	
          5.05000000	        -22.79674216	          1.22616180	         -0.34359270	         -4.45278933	         33.78387536	         -1.30017746	         67.77451522	         44.31766626	        -22.56495845	
          5.06000000	        -22.82379031	          1.04462199	         -0.70810630	         -4.50411875	         33.29722780	         -1.14445995	         67.50894279	         43.91772758	        -22.34121396	
          5.07000000	        -22.94922262	          0.86870288	         -1.23714495	         -4.55792351	         32.82148026	         -0.98964617	         67.22994183	         43.52025048	        -22.11331230	
          5.08000000	        -22.30829485	          0.63092390	         -0.39402108	         -4.61311769	         32.35550732	         -0.83608166	         66.93750950	         43.12460127	        -21.88123000	
          5.09000000	        -22.00344191	          0.42928649	         -0.14514605	         -4.66201796	         31.89627475	         -0.68956852	         66.63234805	         42.73064580	        -21.64423191	
          5.10000000	        -21.72060478	          0.23314114	          0.06980697	         -4.70868910	         31.44396549	         -0.54693872	         66.31377174	         42.33861125	        -21.40205147	
          5.11000000	        -24.01914305	          0.24379125	         -4.29043099	         -4.75460676	         30.99723464	         -0.40601822	         65.98286760	         41.94652223	        -21.15386668	
          5.12000000	        -24.00885713	          0.04888132	         -4.54550343	         -4.81502925	         30.55109681	         -0.24716024	         65.63770105	         41.55063483	        -20.89954832	
          5.13000000	        -24.01124891	         -0.14380910	         -4.82269525	         -4.87363837	         30.10403724	         -0.08777246	         65.27972263	         41.15469588	        -20.63824157	
          5.14000000	        -24.02506193	         -0.33493395	         -5.11841255	         -4.93113073	         29.65764233	          0.07198923	         64.90806861	         40.75947305	        -20.36922149	
          5.15000000	        -24.04846797	         -0.52443976	         -5.42870345	         -4.98755932	         29.21293498	          0.23186676	         64.52264854	         40.36458278	        -20.09187920	
          5.16000000	        -24.07922915	         -0.71251231	         -5.74892963	         -5.04311776	         28.77084101	          0.39169176	         64.12320001	         39.96980081	        -19.80561597	
          5.17000000	        -24.11499509	         -0.89931607	         -6.07432679	         -5.09797461	         28.33223274	          0.55129806	         63.70942707	         39.57501726	        -19.50985799	
          5.18000000	        -24.15360616	         -1.08491402	         -6.40056665	         -5.15222799	         27.89791023	          0.71050047	         63.28101910	         39.18005939	        -19.20413078	
          5.19000000	        -24.19325203	         -1.26926377	         -6.72404540	         -5.20590655	         27.46857940	          0.86909768	         62.83760525	         38.78468679	        -18.88803327	
          5.20000000	        -24.23246363	         -1.45231102	         -7.04184132	         -5.25903580	         27.04484939	          1.02690376	         62.37873565	         38.38869611	        -18.56123330	
          5.21000000	        -24.27003877	         -1.63394046	         -7.35154709	         -5.31160989	         26.62730063	          1.18371704	         61.90393647	         37.99192484	        -18.22350590	
          5.22000000	        -24.30501999	         -1.81400240	         -7.65122529	         -5.36360821	         26.21647900	          1.33932944	         61.41269501	         37.59427044	        -17.87471304	
          5.23000000	        -24.33665123	         -1.99234775	         -7.93931886	         -5.41501864	         25.81289890	          1.49353726	         60.90444554	         37.19568180	        -17.51480253	
          5.24000000	        -24.36432748	         -2.16881365	         -8.21455388	         -5.46582697	         25.41706033	          1.64613247	         60.37858406	         36.79613249	        -17.14380659	
          5.25000000	        -24.38755713	         -2.34324315	         -8.47586440	         -5.51602989	         25.02945341	          1.79690847	         59.83447225	         36.39560629	        -16.76182112	
          5.26000000	        -24.40593559	         -2.51548391	         -8.72234320	         -5.56563294	         24.65056224	          1.94565881	         59.27145162	         35.99408950	        -16.36898903	
          5.27000000	        -24.41913346	         -2.68538027	         -8.95322533	         -5.61464287	         24.28086068	          2.09217534	         58.68885788	         35.59157027	        -15.96547773	
          5.28000000	        -24.42690488	         -2.85277755	         -9.16791015	         -5.66306799	         23.92079785	          2.23625273	         58.08602811	         35.18803937	        -15.55145137	
          5.29000000	        -24.42911437	         -3.01751193	         -9.36602290	         -5.71090750	         23.57077762	          2.37768912	         57.46230549	         34.78349095	        -15.12704919	
          5.30000000	        -24.42575936	         -3.17940396	         -9.54746683	         -5.75814325	         23.23113879	          2.51628815	         56.81704037	         34.37792532	        -14.69236684	
          5.31000000	        -24.41697746	         -3.33826207	         -9.71244153	         -5.80473938	         22.90214236	          2.65186335	         56.14959223	         33.97135179	        -14.24744092	
          5.32000000	        -24.40304061	         -3.49388473	         -9.86143293	         -5.85064198	         22.58396778	          2.78424060	         55.45933018	         33.56378913	        -13.79223950	
          5.33000000	        -24.38433579	         -3.64606179	         -9.99517468	         -5.89577952	         22.27671818	          2.91325855	         54.74563081	         33.15526279	        -13.32665601	
          5.34000000	        -24.36133402	         -3.79457867	        -10.11458446	         -5.94006602	         21.98043219	          3.03876871	         54.00787587	         32.74580050	        -12.85050386	
          5.35000000	        -24.33455218	         -3.93922165	        -10.22068607	         -5.98340575	         21.69509930	          3.16063529	         53.24544949	         32.33542911	        -12.36351120	
          5.36000000	        -24.30451523	         -4.07978310	        -10.31453237	         -6.02569807	         21.42067546	          3.27873460	         52.45773632	         31.92417366	        -11.86531423	
          5.37000000	        -24.27172572	         -4.21606711	        -10.39714320	         -6.06684245	         21.15709557	          3.39295514	         51.64412012	         31.51205994	        -11.35544856	
          5.38000000	        -24.23664651	         -4.34789481	        -10.46946986	         -6.10674309	         20.90428051	          3.50319841	         50.80398256	         31.09911986	        -10.83333942	
          5.39000000	        -24.19969913	         -4.47510806	        -10.53239109	         -6.14531185	         20.66213818	          3.60938022	         49.93670345	         30.68539822	        -10.29829227	
          5.40000000	        -24.16127513	         -4.59757171	        -10.58673508	         -6.18246989	         20.43055922	          3.71143270	         49.04166263	         30.27095926	         -9.74948481	
          5.41000000	        -24.12175411	         -4.71517495	        -10.63331513	         -6.21814816	         20.20940973	          3.80930657	         48.11824377	         29.85589145	         -9.18596177	
